<svg width="130" height="20" viewBox="0 0 130 20" fill="none" xmlns="http://www.w3.org/2000/svg">
<path fill-rule="evenodd" clip-rule="evenodd" d="M3.51557 0H16.4844C18.426 0 20 1.57398 20 3.51557V16.4844C20 18.426 18.426 20 16.4844 20H3.51557C1.57398 20 0 18.426 0 16.4844V3.51557C0 1.57398 1.57398 0 3.51557 0ZM13.1554 6.98899H13.1599C13.5257 6.98631 13.8758 6.83723 14.1349 6.57384C14.394 6.31045 14.5413 5.95383 14.5451 5.58075C14.5463 5.38982 14.5093 5.20065 14.4366 5.02472C14.3638 4.8488 14.2568 4.6898 14.1219 4.55738C13.8566 4.29549 13.5029 4.15194 13.1725 4.16789C12.9951 4.1617 12.8183 4.19204 12.6527 4.2571C12.4871 4.32217 12.336 4.42062 12.2085 4.54657C12.0725 4.67743 11.9641 4.83514 11.8898 5.0101C11.8155 5.18506 11.7768 5.37361 11.7762 5.56429C11.7739 5.75015 11.8079 5.93462 11.8763 6.1069C11.9448 6.27918 12.0462 6.4358 12.1747 6.5676C12.3026 6.70067 12.4552 6.80646 12.6235 6.8788C12.7919 6.95115 12.9727 6.9886 13.1554 6.98899ZM15.5868 8.63438C15.4455 8.51018 15.2679 8.43706 15.0816 8.42636C14.8953 8.41566 14.7108 8.46799 14.5567 8.57521C14.0351 8.93228 13.508 9.14632 12.9531 9.22865C12.8963 9.11384 12.8141 9.01413 12.7129 8.93743C12.6067 8.85897 12.4869 8.80171 12.3598 8.76867C12.2391 8.72563 12.1128 8.70067 11.985 8.69458C11.8714 8.69434 11.7586 8.7149 11.6521 8.75529C11.5196 8.80499 11.4028 8.89033 11.3141 9.00226C11.2294 9.11157 11.168 9.25785 11.1091 9.39839L11.1091 9.39841C11.0795 9.46889 11.0505 9.53792 11.0195 9.60013C10.5826 10.4923 10.1024 11.3593 9.61964 12.2242C9.4488 12.541 9.26121 12.8481 9.05769 13.1441C9.03951 13.1699 9.01528 13.2063 8.98618 13.2501C8.7973 13.5341 8.40336 14.1265 8.12798 14.1073C7.94839 14.0944 7.91258 13.9092 7.89139 13.779C7.85702 13.5638 7.85792 13.3456 7.85882 13.1279L7.85911 13.0237C7.85911 12.4307 7.93641 11.8432 8.01369 11.2557L8.01801 11.2229C8.0762 10.7365 8.17459 10.2559 8.31211 9.78638C8.43671 9.37477 8.51388 8.99403 8.14412 8.6848C8.05114 8.60217 7.95102 8.52829 7.84498 8.46407C7.70406 8.37681 7.54306 8.32901 7.37823 8.32549C7.2134 8.32196 7.05058 8.36284 6.90619 8.44401C6.77857 8.51501 6.65397 8.58498 6.52886 8.66165C6.47629 8.69382 6.42469 8.72765 6.36288 8.76817L6.36284 8.7682L6.31498 8.79954L6.28774 8.81736L6.28774 8.81737C6.21095 8.86765 6.12823 8.92182 6.04711 8.96779C5.25413 9.42295 4.48684 9.92316 3.74884 10.4661C3.30038 10.7907 3.20856 11.2723 3.50468 11.7524C3.56043 11.848 3.63432 11.9314 3.72204 11.9976C3.80975 12.0639 3.90952 12.1116 4.01552 12.138C4.12152 12.1645 4.23164 12.1691 4.33941 12.1516C4.44719 12.1342 4.55047 12.095 4.64323 12.0364C4.64323 12.0364 5.64507 11.4421 6.05064 11.2034C5.92747 11.8767 5.8506 12.5581 5.82061 13.2424C5.79988 13.6955 5.83376 14.1494 5.9215 14.594C5.99011 14.9357 6.10059 15.3298 6.39822 15.6673C6.77958 16.1 7.37685 16.3583 7.99531 16.3583C8.35203 16.3618 8.7034 16.2697 9.0143 16.0913C9.4784 15.8186 9.82899 15.4471 10.1387 15.0869C10.6689 14.4695 11.1587 13.7621 11.7267 12.7948C11.9835 12.3564 12.2312 11.9052 12.4774 11.4539L12.6448 11.1488C12.6536 11.1334 12.792 11.1423 12.8608 11.1468C12.8734 11.1476 12.8837 11.1483 12.8904 11.1486C12.8933 11.1487 12.8956 11.1488 12.8971 11.1488C13.0047 11.1457 13.112 11.1384 13.2189 11.1267C14.0008 11.0418 14.7782 10.7264 15.3578 10.1702L15.3884 10.141C15.5299 10.0063 15.6716 9.87124 15.7704 9.69994C15.9379 9.41233 15.9137 8.92148 15.5868 8.63438Z" fill="#141414"/>
<path d="M 36.28 2.9 L 38 2.56 L 38.12 2.94 C 37.8 3.34 37.4867 3.76 37.18 4.2 C 36.8733 4.64 36.5933 5.0667 36.34 5.48 C 36.0867 5.88 35.8733 6.2333 35.7 6.54 C 35.5267 6.8333 35.4067 7.0333 35.34 7.14 C 34.62 8.4733 33.9067 9.92 33.2 11.48 C 32.5067 13.04 31.8733 14.6467 31.3 16.3 L 29.94 16.82 L 29.74 16.68 L 26.88 7.04 C 26.7333 6.5733 26.5867 6.1133 26.44 5.66 C 26.2933 5.2067 26.12 4.76 25.92 4.32 C 25.76 3.9867 25.54 3.7733 25.26 3.68 C 24.9933 3.5733 24.58 3.48 24.02 3.4 L 24 2.86 L 24.14 2.74 L 27.64 2.54 C 28.4267 6.38 29.5267 10.1133 30.94 13.74 C 30.9667 13.78 30.9933 13.8133 31.02 13.84 C 31.06 13.8533 31.0867 13.8667 31.1 13.88 C 31.1667 13.8533 31.3133 13.5933 31.54 13.1 C 31.78 12.6067 32.1067 11.9133 32.52 11.02 L 34.9 5.54 C 35.0867 5.0867 35.3 4.64 35.54 4.2 C 35.78 3.76 36.0267 3.3267 36.28 2.9 Z M 43.2606 4 C 43.2473 4.3333 43.1206 4.6067 42.8806 4.82 C 42.654 5.02 42.3806 5.12 42.0606 5.12 C 41.7406 5.12 41.4673 5.0067 41.2406 4.78 C 41.014 4.5533 40.9006 4.28 40.9006 3.96 C 40.9006 3.6133 41.0406 3.34 41.3206 3.14 C 41.6006 2.94 41.8873 2.84 42.1806 2.84 C 42.5273 2.84 42.794 2.96 42.9806 3.2 C 43.1673 3.4267 43.2606 3.6933 43.2606 4 Z M 42.9806 8.66 L 42.8206 12.86 C 42.8206 13.5933 42.8806 14.1667 43.0006 14.58 C 43.1206 14.9933 43.354 15.2 43.7006 15.2 C 44.0873 15.2 44.4206 15.1133 44.7006 14.94 C 44.994 14.7533 45.274 14.54 45.5406 14.3 L 45.8006 14.5 V 14.72 C 45.574 15.0133 45.3073 15.3133 45.0006 15.62 C 44.7073 15.9133 44.3873 16.16 44.0406 16.36 C 43.7073 16.56 43.354 16.66 42.9806 16.66 C 42.7006 16.66 42.434 16.6067 42.1806 16.5 C 41.9406 16.4067 41.7473 16.2 41.6006 15.88 C 41.454 15.56 41.3806 15.0733 41.3806 14.42 L 41.5006 10 C 41.5006 9.48 41.4473 9.0667 41.3406 8.76 C 41.2473 8.4533 41.0673 8.3 40.8006 8.3 C 40.5873 8.3 40.3273 8.3733 40.0206 8.52 C 39.714 8.6533 39.4406 8.7933 39.2006 8.94 L 38.9406 8.58 C 39.394 8.22 39.874 7.88 40.3806 7.56 C 40.9006 7.24 41.354 7.08 41.7406 7.08 C 42.194 7.08 42.514 7.2333 42.7006 7.54 C 42.8873 7.8467 42.9806 8.22 42.9806 8.66 Z M 54.8655 7.3 C 54.9055 7.2733 54.9588 7.26 55.0255 7.26 C 55.2121 7.26 55.4121 7.4467 55.6255 7.82 C 55.8388 8.1933 55.9455 8.6733 55.9455 9.26 C 55.9455 9.8067 55.8321 10.3333 55.6055 10.84 C 55.3788 11.3333 55.1255 11.8067 54.8455 12.26 C 54.3921 12.98 53.8921 13.66 53.3455 14.3 C 52.8121 14.94 52.2521 15.56 51.6655 16.16 C 51.5588 16.2667 51.4455 16.38 51.3255 16.5 C 51.2055 16.62 51.1188 16.6933 51.0655 16.72 H 50.5855 L 49.2055 11.56 C 49.0588 10.9867 48.8988 10.46 48.7255 9.98 C 48.5655 9.4867 48.3988 9.0933 48.2255 8.8 C 48.0521 8.4933 47.8588 8.34 47.6455 8.34 C 47.4321 8.34 47.2255 8.38 47.0255 8.46 C 46.8255 8.5267 46.6121 8.6267 46.3855 8.76 L 46.2055 8.28 C 46.5655 8.0267 46.9721 7.7733 47.4255 7.52 C 47.8921 7.2533 48.3188 7.12 48.7055 7.12 C 49.0521 7.12 49.3255 7.2667 49.5255 7.56 C 49.7255 7.84 49.8988 8.2467 50.0455 8.78 C 50.2055 9.3 50.3788 9.92 50.5655 10.64 C 50.6455 10.9333 50.7388 11.32 50.8455 11.8 C 50.9521 12.2667 51.0655 12.7333 51.1855 13.2 C 51.3188 13.6667 51.4455 14.06 51.5655 14.38 C 51.6988 14.7 51.8188 14.86 51.9255 14.86 C 51.9788 14.86 52.0521 14.8067 52.1455 14.7 C 52.2388 14.5933 52.3255 14.5 52.4055 14.42 C 52.7388 14.02 53.0655 13.5933 53.3855 13.14 C 53.7188 12.6733 53.9921 12.1933 54.2055 11.7 C 54.4321 11.2067 54.5455 10.7267 54.5455 10.26 C 54.5455 9.94 54.4655 9.6067 54.3055 9.26 C 54.1455 8.9133 53.9788 8.58 53.8055 8.26 C 53.7921 8.2467 53.7855 8.2133 53.7855 8.16 C 53.7855 8.1067 53.8121 8.0533 53.8655 8 L 54.8655 7.3 Z M 61.5888 4 C 61.5754 4.3333 61.4488 4.6067 61.2088 4.82 C 60.9821 5.02 60.7088 5.12 60.3888 5.12 C 60.0688 5.12 59.7954 5.0067 59.5688 4.78 C 59.3421 4.5533 59.2288 4.28 59.2288 3.96 C 59.2288 3.6133 59.3688 3.34 59.6488 3.14 C 59.9288 2.94 60.2154 2.84 60.5088 2.84 C 60.8554 2.84 61.1221 2.96 61.3088 3.2 C 61.4954 3.4267 61.5888 3.6933 61.5888 4 Z M 61.3088 8.66 L 61.1488 12.86 C 61.1488 13.5933 61.2088 14.1667 61.3288 14.58 C 61.4488 14.9933 61.6821 15.2 62.0288 15.2 C 62.4154 15.2 62.7488 15.1133 63.0288 14.94 C 63.3221 14.7533 63.6021 14.54 63.8688 14.3 L 64.1288 14.5 V 14.72 C 63.9021 15.0133 63.6354 15.3133 63.3288 15.62 C 63.0354 15.9133 62.7154 16.16 62.3688 16.36 C 62.0354 16.56 61.6821 16.66 61.3088 16.66 C 61.0288 16.66 60.7621 16.6067 60.5088 16.5 C 60.2688 16.4067 60.0754 16.2 59.9288 15.88 C 59.7821 15.56 59.7088 15.0733 59.7088 14.42 L 59.8288 10 C 59.8288 9.48 59.7754 9.0667 59.6688 8.76 C 59.5754 8.4533 59.3954 8.3 59.1288 8.3 C 58.9154 8.3 58.6554 8.3733 58.3488 8.52 C 58.0421 8.6533 57.7688 8.7933 57.5288 8.94 L 57.2687 8.58 C 57.7221 8.22 58.2021 7.88 58.7088 7.56 C 59.2288 7.24 59.6821 7.08 60.0688 7.08 C 60.5221 7.08 60.8421 7.2333 61.0288 7.54 C 61.2154 7.8467 61.3088 8.22 61.3088 8.66 Z M 71.7736 8.84 L 70.6736 9.58 L 70.4336 9.44 C 70.4069 9 70.2936 8.6333 70.0936 8.34 C 69.9069 8.0333 69.5869 7.88 69.1336 7.88 C 68.6669 7.88 68.2736 8.0333 67.9536 8.34 C 67.6469 8.6467 67.4936 9.0333 67.4936 9.5 C 67.4936 9.9 67.6736 10.2467 68.0336 10.54 C 68.4069 10.82 68.9603 11.1133 69.6936 11.42 C 70.4669 11.7533 71.0403 12.1067 71.4136 12.48 C 71.8003 12.8533 71.9936 13.2733 71.9936 13.74 C 71.9936 14.42 71.8003 14.9933 71.4136 15.46 C 71.0403 15.9133 70.5603 16.26 69.9736 16.5 C 69.4003 16.7267 68.8203 16.84 68.2336 16.84 C 67.6336 16.84 67.0736 16.72 66.5536 16.48 C 66.0469 16.24 65.6269 15.8067 65.2936 15.18 L 66.2736 13.76 L 66.5536 13.78 C 66.5936 14.3933 66.8269 14.9333 67.2536 15.4 C 67.6803 15.8533 68.2069 16.08 68.8336 16.08 C 69.2603 16.08 69.6469 15.9333 69.9936 15.64 C 70.3536 15.3333 70.5336 14.9733 70.5336 14.56 C 70.5336 14.2133 70.4336 13.92 70.2336 13.68 C 70.0336 13.44 69.7803 13.2333 69.4736 13.06 C 69.1803 12.8867 68.8736 12.7333 68.5536 12.6 C 68.1403 12.4267 67.7403 12.2267 67.3536 12 C 66.9669 11.7733 66.6536 11.5 66.4136 11.18 C 66.1736 10.86 66.0536 10.48 66.0536 10.04 C 66.0536 9.44 66.2269 8.9267 66.5736 8.5 C 66.9203 8.0733 67.3603 7.7467 67.8936 7.52 C 68.4269 7.2933 68.9669 7.18 69.5136 7.18 C 69.8603 7.18 70.2003 7.2333 70.5336 7.34 C 70.8803 7.4467 71.1669 7.62 71.3936 7.86 C 71.6336 8.1 71.7603 8.4267 71.7736 8.84 Z M 75.9317 4.86 L 77.6117 4.28 L 77.7517 4.38 C 77.6984 4.9533 77.6517 5.5067 77.6117 6.04 C 77.5717 6.56 77.5451 7.1133 77.5317 7.7 L 77.6517 7.8 H 80.2117 L 80.3117 7.88 L 80.1517 8.4 L 80.0317 8.5 H 77.6517 L 77.5317 8.62 V 12.4 C 77.5317 12.8667 77.5584 13.3333 77.6117 13.8 C 77.6784 14.2667 77.8117 14.6533 78.0117 14.96 C 78.2251 15.2533 78.5384 15.4 78.9517 15.4 C 79.2051 15.4 79.4984 15.3133 79.8317 15.14 C 80.1651 14.9533 80.4784 14.7667 80.7717 14.58 L 81.0117 14.62 L 81.1517 14.92 C 80.6984 15.3467 80.1851 15.7467 79.6117 16.12 C 79.0384 16.4933 78.4584 16.68 77.8717 16.68 C 77.6451 16.68 77.3917 16.6333 77.1117 16.54 C 76.8451 16.46 76.6184 16.3 76.4317 16.06 C 76.2984 15.8733 76.1984 15.6733 76.1317 15.46 C 76.0651 15.2467 76.0184 14.9133 75.9917 14.46 C 75.9784 14.0067 75.9717 13.3333 75.9717 12.44 V 8.64 L 75.8517 8.5 H 73.6117 L 73.5117 8.4 L 73.6517 7.92 L 73.7717 7.8 H 75.8517 L 75.9717 7.68 C 75.9717 7.1733 75.9717 6.64 75.9717 6.08 C 75.9717 5.52 75.9584 5.1133 75.9317 4.86 Z M 86.327 4 C 86.3137 4.3333 86.187 4.6067 85.947 4.82 C 85.7204 5.02 85.447 5.12 85.127 5.12 C 84.807 5.12 84.5337 5.0067 84.307 4.78 C 84.0804 4.5533 83.967 4.28 83.967 3.96 C 83.967 3.6133 84.107 3.34 84.387 3.14 C 84.667 2.94 84.9537 2.84 85.247 2.84 C 85.5937 2.84 85.8604 2.96 86.047 3.2 C 86.2337 3.4267 86.327 3.6933 86.327 4 Z M 86.047 8.66 L 85.887 12.86 C 85.887 13.5933 85.947 14.1667 86.067 14.58 C 86.187 14.9933 86.4204 15.2 86.767 15.2 C 87.1537 15.2 87.487 15.1133 87.767 14.94 C 88.0604 14.7533 88.3404 14.54 88.607 14.3 L 88.867 14.5 V 14.72 C 88.6404 15.0133 88.3737 15.3133 88.067 15.62 C 87.7737 15.9133 87.4537 16.16 87.107 16.36 C 86.7737 16.56 86.4204 16.66 86.047 16.66 C 85.767 16.66 85.5004 16.6067 85.247 16.5 C 85.007 16.4067 84.8137 16.2 84.667 15.88 C 84.5204 15.56 84.447 15.0733 84.447 14.42 L 84.567 10 C 84.567 9.48 84.5137 9.0667 84.407 8.76 C 84.3137 8.4533 84.1337 8.3 83.867 8.3 C 83.6537 8.3 83.3937 8.3733 83.087 8.52 C 82.7804 8.6533 82.507 8.7933 82.267 8.94 L 82.007 8.58 C 82.4604 8.22 82.9404 7.88 83.447 7.56 C 83.967 7.24 84.4204 7.08 84.807 7.08 C 85.2604 7.08 85.5804 7.2333 85.767 7.54 C 85.9537 7.8467 86.047 8.22 86.047 8.66 Z M 98.3519 14.22 L 98.5719 14.58 C 97.9585 15.1933 97.2785 15.7333 96.5319 16.2 C 95.7985 16.6533 94.9852 16.88 94.0919 16.88 C 93.2785 16.88 92.6385 16.7333 92.1719 16.44 C 91.7052 16.1333 91.3585 15.74 91.1319 15.26 C 90.9185 14.78 90.7785 14.2667 90.7119 13.72 C 90.6585 13.1733 90.6319 12.6533 90.6319 12.16 C 90.6319 11.16 90.8452 10.2733 91.2719 9.5 C 91.7119 8.7133 92.3119 8.1 93.0719 7.66 C 93.8319 7.22 94.7052 7 95.6919 7 C 96.3452 7 96.8785 7.1867 97.2919 7.56 C 97.7185 7.92 97.9585 8.3867 98.0119 8.96 L 96.9319 10.02 L 96.5919 9.9 C 96.4985 9.2333 96.2985 8.7133 95.9919 8.34 C 95.6852 7.9667 95.3185 7.78 94.8919 7.78 C 94.3319 7.78 93.8585 7.9733 93.4719 8.36 C 93.0852 8.7333 92.7919 9.2133 92.5919 9.8 C 92.3919 10.3733 92.2919 10.9533 92.2919 11.54 C 92.2919 11.9667 92.3319 12.4133 92.4119 12.88 C 92.4919 13.3467 92.6319 13.7867 92.8319 14.2 C 93.0319 14.6 93.3119 14.9267 93.6719 15.18 C 94.0452 15.4333 94.5252 15.56 95.1119 15.56 C 95.6985 15.56 96.2452 15.4267 96.7519 15.16 C 97.2585 14.88 97.7319 14.5533 98.1719 14.18 L 98.3519 14.22 Z M 103.1134 11.18 L 105.7934 8.72 C 106.3134 8.24 106.7068 7.88 106.9734 7.64 C 107.2401 7.4 107.4468 7.2267 107.5934 7.12 C 107.7401 7 107.8934 6.8933 108.0534 6.8 L 108.9734 7.38 V 7.6 C 108.2268 8.04 107.4934 8.5133 106.7734 9.02 C 106.0668 9.5267 105.3801 10.06 104.7134 10.62 C 104.6468 10.6733 104.5668 10.74 104.4734 10.82 C 104.3934 10.9 104.3534 10.9667 104.3534 11.02 C 104.3534 11.0733 104.3734 11.1267 104.4134 11.18 C 104.4534 11.2333 104.4868 11.2867 104.5134 11.34 C 104.8068 11.7133 105.1334 12.1133 105.4934 12.54 C 105.8668 12.9667 106.2401 13.3733 106.6134 13.76 C 106.9868 14.1333 107.3334 14.44 107.6534 14.68 C 107.9734 14.92 108.2334 15.04 108.4334 15.04 C 108.7668 15.04 109.0534 14.9667 109.2934 14.82 C 109.5468 14.6733 109.7801 14.4867 109.9934 14.26 L 110.3734 14.66 C 110.2134 14.8733 110.0001 15.14 109.7334 15.46 C 109.4801 15.7667 109.1868 16.04 108.8534 16.28 C 108.5334 16.52 108.1934 16.64 107.8334 16.64 C 107.5401 16.64 107.2868 16.5733 107.0734 16.44 C 106.8601 16.2933 106.5868 16.0333 106.2534 15.66 C 106.2534 15.66 106.1534 15.5333 105.9534 15.28 C 105.7668 15.0133 105.5134 14.6733 105.1934 14.26 C 104.8734 13.8467 104.5268 13.4133 104.1534 12.96 C 103.7801 12.5067 103.4134 12.08 103.0534 11.68 L 102.8134 11.82 V 16.24 L 101.3934 16.64 L 101.2734 16.5 C 101.3134 14.9267 101.3601 13.3667 101.4134 11.82 C 101.4801 10.2733 101.5134 8.7133 101.5134 7.14 C 101.5134 6.6333 101.5001 6.1533 101.4734 5.7 C 101.4468 5.2467 101.4001 4.8867 101.3334 4.62 C 101.2401 4.3133 101.0601 4.1067 100.7934 4 C 100.5401 3.88 100.1468 3.7933 99.6134 3.74 V 3.32 L 99.7134 3.24 L 102.9134 2.78 L 102.8534 2.92 V 11.18 H 103.1134 Z M 119.4259 10.12 L 113.7859 12.56 C 113.8259 12.9733 113.9326 13.4 114.1059 13.84 C 114.2926 14.28 114.5659 14.6467 114.9259 14.94 C 115.2993 15.2333 115.7793 15.38 116.3659 15.38 C 116.9126 15.38 117.4459 15.24 117.9659 14.96 C 118.4993 14.68 118.9926 14.3667 119.4459 14.02 L 119.6659 14.06 L 119.9259 14.42 C 119.5126 14.8067 119.0593 15.18 118.5659 15.54 C 118.0859 15.8867 117.5726 16.1733 117.0259 16.4 C 116.4926 16.6267 115.9393 16.74 115.3659 16.74 C 114.6993 16.74 114.1459 16.6 113.7059 16.32 C 113.2793 16.04 112.9459 15.6733 112.7059 15.22 C 112.4659 14.7533 112.2926 14.24 112.1859 13.68 C 112.0926 13.1067 112.0459 12.54 112.0459 11.98 C 112.0459 11.3933 112.1193 10.82 112.2659 10.26 C 112.4126 9.7 112.6793 9.1933 113.0659 8.74 C 113.5593 8.1667 114.1459 7.7267 114.8259 7.42 C 115.5193 7.1 116.2459 6.94 117.0059 6.94 C 117.8726 6.94 118.5593 7.2067 119.0659 7.74 C 119.5859 8.2733 119.8459 8.9267 119.8459 9.7 C 119.8459 9.82 119.7993 9.9067 119.7059 9.96 C 119.6259 10.0133 119.5326 10.0667 119.4259 10.12 Z M 114.6259 8.58 C 114.2393 8.9933 113.9859 9.4267 113.8659 9.88 C 113.7593 10.3333 113.7059 10.8067 113.7059 11.3 C 113.7059 11.3533 113.7059 11.4133 113.7059 11.48 C 113.7193 11.5333 113.7326 11.5933 113.7459 11.66 L 113.8259 11.74 L 117.8659 10.14 C 117.9326 10.1133 117.9926 10.06 118.0459 9.98 C 118.0993 9.9 118.1259 9.78 118.1259 9.62 C 118.1259 9.34 118.0526 9.0533 117.9059 8.76 C 117.7593 8.4667 117.5459 8.2267 117.2659 8.04 C 116.9993 7.84 116.6793 7.74 116.3059 7.74 C 115.9726 7.74 115.6593 7.8133 115.3659 7.96 C 115.0859 8.1067 114.8393 8.3133 114.6259 8.58 Z M 128.364 9.72 L 128.124 9.62 C 128.071 9.34 127.964 9.08 127.804 8.84 C 127.644 8.5867 127.398 8.46 127.064 8.46 C 126.651 8.46 126.318 8.6 126.064 8.88 C 125.811 9.16 125.631 9.4333 125.524 9.7 C 125.431 9.9133 125.378 10.22 125.364 10.62 C 125.351 11.02 125.351 11.4467 125.364 11.9 C 125.378 12.34 125.384 12.74 125.384 13.1 C 125.384 14.1 125.404 15.1133 125.444 16.14 L 124.044 16.56 L 123.7442 16.38 C 123.8109 15.6733 123.8642 14.9067 123.9042 14.08 C 123.9576 13.2533 123.9842 12.44 123.9842 11.64 C 123.9842 11.12 123.9776 10.6 123.9642 10.08 C 123.9509 9.56 123.8842 9.1267 123.7642 8.78 C 123.6442 8.4333 123.4309 8.26 123.1242 8.26 C 122.8976 8.26 122.6442 8.3267 122.3642 8.46 C 122.0842 8.5933 121.8176 8.7333 121.5642 8.88 L 121.3242 8.54 C 121.5909 8.3267 121.8776 8.1067 122.1842 7.88 C 122.5042 7.6533 122.8242 7.46 123.1442 7.3 C 123.4642 7.1267 123.7576 7.04 124.024 7.04 C 124.478 7.04 124.818 7.1733 125.044 7.44 C 125.271 7.7067 125.411 8.0533 125.464 8.48 L 125.664 8.56 C 125.864 8.3733 126.084 8.1733 126.324 7.96 C 126.578 7.7333 126.838 7.5467 127.104 7.4 C 127.371 7.24 127.624 7.16 127.864 7.16 C 128.811 7.16 129.338 7.6867 129.444 8.74 L 128.364 9.72 Z" fill="#141414"/>
</svg>
